<svg xmlns="http://www.w3.org/2000/svg" fill="none" viewBox="0 0 306 200"><path fill="#1F1F1F" d="M0 0h306v200H0z"/><rect width="297" height="191" x="4.5" y="4.5" stroke="#444746" rx="7.5"/><path fill="url(#a)" d="M188.389 147.5 157 90H74.5l-27.25 8.5H21V180h265v-32.5z" opacity=".1"/><path stroke="#757FA4" d="M286 147.5h-97.611L157 90h-43.5"/><path stroke="#A3C9FF" stroke-dasharray="2 2" d="M21 98.5h26.25L74.5 90h35"/><rect width="41" height="26" x="167" y="33" fill="#757FA4" opacity=".5" rx="4"/><path fill="#242832" d="m186.843 50.427-16.831-14.673c-.697-.608-.267-1.754.657-1.754h33.662c.924 0 1.354 1.146.657 1.754l-16.831 14.673a1 1 0 0 1-1.314 0" opacity=".5"/><path fill="#757FA4" d="m186.917 46.581-16.393-11.769c-.789-.566-.388-1.812.584-1.812h32.784c.972 0 1.373 1.246.584 1.812l-16.393 11.77a1 1 0 0 1-1.166 0"/><rect width="46" height="24" fill="#3A3F50" rx="12" transform="matrix(-1 0 0 1 136 34)"/><g filter="url(#b)"><path fill="#A8C7FA" fill-rule="evenodd" d="M123.952 55.818c-5.444 0-9.857-4.396-9.857-9.818s4.413-9.818 9.857-9.818 9.858 4.396 9.858 9.818-4.414 9.818-9.858 9.818" clip-rule="evenodd"/><path stroke="#1F1F1F" d="M114.595 46c0 5.144 4.188 9.318 9.357 9.318 5.17 0 9.358-4.174 9.358-9.318 0-5.145-4.188-9.318-9.358-9.318-5.169 0-9.357 4.173-9.357 9.318Z"/></g><path fill="#1F1F1F" d="m122.359 50.11-3.169-3.187.937-.937 2.232 2.212 5.418-5.4.938.957z"/><circle cx="112" cy="90" r="3" fill="#A8C7FA"/><circle cx="188" cy="147" r="3" fill="#34A853"/><path fill="#A8C7FA" d="m264.114 32.043-1.403.365a.94.94 0 0 0-.626.538.98.98 0 0 0 .016.838l4.321 8.83 8.245-2.148-9.282-8.12a1.41 1.41 0 0 0-1.271-.302" opacity=".2"/><path fill="#A8C7FA" d="m254.596 46.31-.553-2.173c-.211-.833.654-1.539 1.418-1.156L259.5 45l24.04-6.074a2.33 2.33 0 0 1 1.801.277c.541.334.93.874 1.082 1.502a3.3 3.3 0 0 1 .071 1.093 2.5 2.5 0 0 1-.313.9 2.4 2.4 0 0 1-.625.706c-.251.192-.537.33-.841.407l-28.945 7.385z" opacity=".1"/><path fill="#A8C7FA" d="m255.75 51.188 28.983-7.391a2.36 2.36 0 0 0 1.305-.872c.327-.434.473-.981.467-1.53l-31.192 7.98z" opacity=".3"/><path fill="#A8C7FA" d="m270.877 58.51-1.403.355a.92.92 0 0 1-.805-.167.98.98 0 0 1-.374-.75l-.287-9.882 8.258-2.113-4.454 11.692c-.08.208-.206.395-.368.545s-.357.26-.567.32" opacity=".4"/><path stroke="#34A853" stroke-dasharray="0.1 4" stroke-linecap="round" stroke-width="2" d="M188 140V62"/><path stroke="#A8C7FA" stroke-dasharray="0.1 4" stroke-linecap="round" stroke-width="2" d="M112 84V61"/><path fill="#424654" d="M21.354 46.647a.5.5 0 0 0-.708 0l-3.182 3.181a.5.5 0 1 0 .708.707L21 47.707l2.828 2.828a.5.5 0 1 0 .707-.707zM21.5 180V47h-1v133z"/><rect width="21" height="21" x="10" y="117" fill="#2C303D" rx="10.5"/><rect width="21" height="21" x="10" y="117" stroke="#1F1F1F" stroke-width="2" rx="10.5"/><path fill="#757FA4" d="M19.976 133.2v-1.044a3.4 3.4 0 0 1-1.404-.54 3.2 3.2 0 0 1-.72-.744 3.4 3.4 0 0 1-.48-1.032l1.38-.564q.108.396.348.732t.6.528q.132.084.276.132v-2.292l-.108-.048a6 6 0 0 1-.84-.396 3.5 3.5 0 0 1-.684-.528q-.3-.3-.468-.672a2.1 2.1 0 0 1-.168-.852q0-.636.324-1.152t.936-.828a3 3 0 0 1 1.008-.276v-1.032h1.068v1.056q.444.06.78.216.564.276.876.672.324.396.444.792l-1.344.6a1.2 1.2 0 0 0-.252-.444 1.2 1.2 0 0 0-.504-.372v2.16q.6.252 1.068.528.576.336.888.792t.312 1.14q0 .624-.24 1.092a2.3 2.3 0 0 1-.648.768q-.408.3-.912.444a3 3 0 0 1-.468.108v1.056zm0-6.396v-1.752q-.252.06-.444.192-.348.252-.348.636 0 .228.12.42.12.18.384.336.12.084.288.168m1.068 3.852a.5.5 0 0 0 .096-.036q.288-.12.456-.348a.83.83 0 0 0 .18-.528.8.8 0 0 0-.12-.456 1.2 1.2 0 0 0-.384-.36 2 2 0 0 1-.228-.12z"/><path fill="#424654" d="M286.354 179.854a.5.5 0 0 0 0-.708l-3.182-3.182a.502.502 0 0 0-.708.708l2.829 2.828-2.829 2.828a.502.502 0 0 0 .708.708zM21 180h265v-1H21z"/><rect width="20" height="20" x="143" y="169" fill="#2C303D" rx="10"/><rect width="20" height="20" x="143" y="169" stroke="#1F1F1F" stroke-width="2" rx="10"/><g clip-path="url(#c)"><path fill="#757FA4" d="m154.669 181.4.635-.635-1.856-1.856v-2.616h-.896v2.99zM153 184.065a4.7 4.7 0 0 1-1.856-.373 5 5 0 0 1-1.532-1.022 5 5 0 0 1-1.021-1.532 4.7 4.7 0 0 1-.373-1.855q0-.997.373-1.869a4.8 4.8 0 0 1 1.021-1.519 5 5 0 0 1 1.532-1.021A4.7 4.7 0 0 1 153 174.5q.996 0 1.868.374a4.8 4.8 0 0 1 1.52 1.021q.648.648 1.021 1.519.374.872.374 1.869 0 .984-.374 1.855a4.9 4.9 0 0 1-1.021 1.532 4.8 4.8 0 0 1-1.52 1.022 4.7 4.7 0 0 1-1.868.373m0-.897q1.62 0 2.753-1.133 1.133-1.146 1.133-2.752 0-1.62-1.133-2.753T153 175.397q-1.606 0-2.752 1.133-1.134 1.134-1.134 2.753 0 1.606 1.134 2.752a3.77 3.77 0 0 0 2.752 1.133"/></g><rect width="25" height="22" x="174" y="88" fill="#1F1F1F" rx="11"/><g clip-path="url(#d)"><path fill="#34A853" d="M182 103.167 177.833 99l1.229-1.23 2.063 2.084v-5.979h1.75v5.98l2.063-2.084L186.167 99z"/></g><path fill="#34A853" d="M193.472 105.4v-1.218a3.9 3.9 0 0 1-1.638-.63q-.476-.35-.84-.868c-.364-.518-.429-.747-.56-1.204l1.61-.658q.126.462.406.854t.7.616q.154.098.322.154v-2.674l-.126-.056a7 7 0 0 1-.98-.462 4 4 0 0 1-.798-.616 2.7 2.7 0 0 1-.546-.784 2.45 2.45 0 0 1-.196-.994q0-.743.378-1.344t1.092-.966a3.5 3.5 0 0 1 1.176-.322v-1.204h1.246v1.232q.518.07.91.252.658.322 1.022.784.378.462.518.924l-1.568.7a1.4 1.4 0 0 0-.294-.518 1.4 1.4 0 0 0-.518-.406l-.07-.028v2.52q.7.294 1.246.616.672.392 1.036.924t.364 1.33q0 .728-.28 1.274a2.7 2.7 0 0 1-.756.896 3.3 3.3 0 0 1-1.064.518 3.6 3.6 0 0 1-.546.126v1.232zm0-7.462v-2.044a1.5 1.5 0 0 0-.518.224q-.406.294-.406.742 0 .265.14.49.14.21.448.392.14.097.336.196m1.246 4.494a.5.5 0 0 0 .112-.042q.336-.14.532-.406a.97.97 0 0 0 .21-.616.94.94 0 0 0-.14-.532 1.4 1.4 0 0 0-.448-.42 2 2 0 0 1-.266-.14z"/><defs><clipPath id="c"><path fill="#fff" d="M147.261 173.261h11.478v11.478h-11.478z"/></clipPath><clipPath id="d"><path fill="#fff" d="M174 91h16v16h-16z"/></clipPath><linearGradient id="a" x1="153.5" x2="153.5" y1="90" y2="180" gradientUnits="userSpaceOnUse"><stop stop-color="#A8C7FA"/><stop offset="1" stop-color="#A8C7FA" stop-opacity="0"/></linearGradient><filter id="b" width="19.714" height="20.636" x="114.095" y="36.182" color-interpolation-filters="sRGB" filterUnits="userSpaceOnUse"><feFlood flood-opacity="0" result="BackgroundImageFix"/><feColorMatrix in="SourceAlpha" result="hardAlpha" values="0 0 0 0 0 0 0 0 0 0 0 0 0 0 0 0 0 0 127 0"/><feOffset dy="1"/><feComposite in2="hardAlpha" operator="out"/><feColorMatrix values="0 0 0 0 0 0 0 0 0 0.0540951 0 0 0 0 0.540951 0 0 0 0.15 0"/><feBlend in2="BackgroundImageFix" result="effect1_dropShadow_60_263"/><feBlend in="SourceGraphic" in2="effect1_dropShadow_60_263" result="shape"/></filter></defs></svg>